<svg width="23" height="23" viewBox="0 0 23 23" fill="none" xmlns="http://www.w3.org/2000/svg">
<path id="Union" d="M10.5586 0.868164C10.5586 0.45395 10.8944 0.118164 11.3086 0.118164C11.7228 0.118164 12.0586 0.45395 12.0586 0.868164V9.55748L16.6119 5.00419C16.9048 4.7113 17.3796 4.7113 17.6725 5.00419C17.9654 5.29708 17.9654 5.77196 17.6725 6.06485L13.1192 10.6182H21.8086C22.2228 10.6182 22.5586 10.954 22.5586 11.3682C22.5586 11.7824 22.2228 12.1182 21.8086 12.1182H13.1192L17.6725 16.6715C17.9654 16.9644 17.9654 17.4392 17.6725 17.7321C17.3796 18.025 16.9048 18.025 16.6119 17.7321L12.0586 13.1788V21.8682C12.0586 22.2824 11.7228 22.6182 11.3086 22.6182C10.8944 22.6182 10.5586 22.2824 10.5586 21.8682V13.1788L6.00528 17.7321C5.71239 18.025 5.23751 18.025 4.94462 17.7321C4.65173 17.4392 4.65173 16.9643 4.94462 16.6715L9.49791 12.1182H0.808594C0.394381 12.1182 0.0585938 11.7824 0.0585938 11.3682C0.0585938 10.954 0.394381 10.6182 0.808594 10.6182H9.49791L4.94461 6.06487C4.65172 5.77197 4.65172 5.2971 4.94461 5.00421C5.23751 4.71131 5.71238 4.71131 6.00528 5.00421L10.5586 9.55753V0.868164Z" fill="#1F1F1F"/>
</svg>
